# This file uses centimeters as units for non-parametric coordinates.

g default
v 0.127532 0.000000 0.695673
v 0.150035 0.054327 0.750000
v -0.127532 0.000000 0.695673
v -0.150035 0.054327 0.750000
v 0.445673 0.000000 0.377532
v 0.500000 0.054327 0.400035
v 0.445673 0.000000 -0.377532
v 0.500000 0.054327 -0.400035
v 0.127532 2.000000 0.695673
v 0.150035 1.945673 0.750000
v -0.127532 2.000000 0.695673
v -0.150035 1.945673 0.750000
v 0.445673 2.000000 0.377532
v 0.500000 1.945673 0.400035
v -0.445673 0.000000 0.377532
v -0.500000 0.054327 0.400035
v -0.445673 0.000000 -0.377532
v -0.500000 0.054327 -0.400035
v -0.445673 2.000000 0.377532
v -0.500000 1.945673 0.400035
v -0.445673 2.000000 -0.377532
v -0.500000 1.945673 -0.400035
v 0.445673 2.000000 -0.377532
v 0.500000 1.945673 -0.400035
v 0.127532 2.000000 -0.695673
v 0.150035 1.945673 -0.750000
v 0.127532 0.000000 -0.695673
v 0.150035 0.054327 -0.750000
v -0.127532 0.000000 -0.695673
v -0.150035 0.054327 -0.750000
v -0.127532 2.000000 -0.695673
v -0.150035 1.945673 -0.750000
vt 0.337929 0.000000
vt 0.339664 0.018359
vt 0.297189 0.018359
vt 0.298924 0.000000
vt 0.411792 0.000000
vt 0.414807 0.018359
vt 0.222046 0.018359
vt 0.225061 0.000000
vt 0.562990 0.000000
vt 0.559975 0.018359
vt 0.635118 0.018359
vt 0.337929 0.675858
vt 0.793097 0.334811
vt 0.885165 0.334811
vt 1.000000 0.258254
vt 0.339664 0.657499
vt 0.414807 0.657499
vt 0.411792 0.675858
vt 0.298924 0.675858
vt 0.297189 0.657499
vt 0.225061 0.675858
vt 0.222046 0.657499
vt 0.559975 0.657499
vt 0.562990 0.675858
vt 0.076878 0.018359
vt 1.000000 0.076557
vt 0.885165 0.000000
vt 0.073863 0.000000
vt 0.001735 0.018359
vt 0.000000 0.000000
vt 0.073863 0.675858
vt 0.076878 0.657499
vt 0.000000 0.675858
vt 0.001735 0.657499
vt 0.636853 0.675858
vt 0.678262 0.258254
vt 0.678262 0.076557
vt 0.793097 0.000000
vt 0.677593 0.657499
vt 0.675858 0.675858
vt 0.636853 0.000000
vt 0.675858 0.000000
vt 0.635118 0.657499
vt 0.677593 0.018359
vn 0.000000 -0.707107 0.707107
vn 0.000000 -0.707107 0.707107
vn 0.000000 -0.707107 0.707107
vn 0.000000 -0.707107 0.707107
vn 0.500000 -0.707107 0.500000
vn 0.500000 -0.707107 0.500000
vn 0.500000 -0.707107 0.500000
vn 0.500000 -0.707107 0.500000
vn -0.500000 -0.707107 0.500000
vn -0.500000 -0.707107 0.500000
vn -0.500000 -0.707107 0.500000
vn -0.500000 -0.707107 0.500000
vn 0.707107 -0.707107 0.000000
vn 0.707107 -0.707107 0.000000
vn 0.707107 -0.707107 0.000000
vn 0.707107 -0.707107 0.000000
vn 0.500000 -0.707107 -0.500000
vn 0.500000 -0.707107 -0.500000
vn 0.500000 -0.707107 -0.500000
vn 0.500000 -0.707107 -0.500000
vn 0.499999 0.707106 0.500002
vn 0.499999 0.707106 0.500002
vn 0.499999 0.707106 0.500002
vn 0.499999 0.707106 0.500002
vn 0.000000 0.707107 0.707106
vn 0.000000 0.707107 0.707106
vn 0.000000 0.707107 0.707106
vn 0.000000 0.707107 0.707106
vn -0.499999 0.707106 0.500002
vn -0.499999 0.707106 0.500002
vn -0.499999 0.707106 0.500002
vn -0.499999 0.707106 0.500002
vn 0.707107 0.707107 0.000000
vn 0.707107 0.707107 0.000000
vn 0.707107 0.707107 0.000000
vn 0.707107 0.707107 0.000000
vn -0.707107 -0.707107 0.000000
vn -0.707107 -0.707107 0.000000
vn -0.707107 -0.707107 0.000000
vn -0.707107 -0.707107 0.000000
vn -0.500000 -0.707107 -0.500000
vn -0.500000 -0.707107 -0.500000
vn -0.500000 -0.707107 -0.500000
vn -0.500000 -0.707107 -0.500000
vn -0.707107 0.707107 0.000000
vn -0.707107 0.707107 0.000000
vn -0.707107 0.707107 0.000000
vn -0.707107 0.707107 0.000000
vn -0.499999 0.707106 -0.500002
vn -0.499999 0.707106 -0.500002
vn -0.499999 0.707106 -0.500002
vn -0.499999 0.707106 -0.500002
vn 0.499999 0.707106 -0.500002
vn 0.499999 0.707106 -0.500002
vn 0.499999 0.707106 -0.500002
vn 0.499999 0.707106 -0.500002
vn 0.000000 0.707107 -0.707106
vn 0.000000 0.707107 -0.707106
vn 0.000000 0.707107 -0.707106
vn 0.000000 0.707107 -0.707106
vn 0.000000 -0.707107 -0.707107
vn 0.000000 -0.707107 -0.707107
vn 0.000000 -0.707107 -0.707107
vn 0.000000 -0.707107 -0.707107
vn 0.000000 0.000000 1.000000
vn 0.000000 0.000000 1.000000
vn 0.000000 0.000000 1.000000
vn 0.000000 0.000000 1.000000
vn 0.000000 0.000000 -1.000000
vn 0.000000 0.000000 -1.000000
vn 0.000000 0.000000 -1.000000
vn 0.000000 0.000000 -1.000000
vn 1.000000 0.000000 0.000000
vn 1.000000 0.000000 0.000000
vn 1.000000 0.000000 0.000000
vn 1.000000 0.000000 0.000000
vn -1.000000 0.000000 0.000000
vn -1.000000 0.000000 0.000000
vn -1.000000 0.000000 0.000000
vn -1.000000 0.000000 0.000000
vn 0.000000 1.000000 -0.000000
vn 0.000000 1.000000 -0.000000
vn 0.000000 1.000000 -0.000000
vn 0.000000 1.000000 -0.000000
vn 0.000000 1.000000 -0.000000
vn 0.000000 1.000000 -0.000000
vn 0.000000 1.000000 -0.000000
vn 0.000000 1.000000 -0.000000
vn 0.707107 0.000000 0.707107
vn 0.707107 0.000000 0.707107
vn 0.707107 0.000000 0.707107
vn 0.707107 0.000000 0.707107
vn -0.707107 0.000000 0.707107
vn -0.707107 0.000000 0.707107
vn -0.707107 0.000000 0.707107
vn -0.707107 0.000000 0.707107
vn 0.707107 0.000000 -0.707107
vn 0.707107 0.000000 -0.707107
vn 0.707107 0.000000 -0.707107
vn 0.707107 0.000000 -0.707107
vn -0.707107 0.000000 -0.707107
vn -0.707107 0.000000 -0.707107
vn -0.707107 0.000000 -0.707107
vn -0.707107 0.000000 -0.707107
s off
g column
f 1/1/1 2/2/2 4/3/3 3/4/4
f 2/2/5 1/1/6 5/5/7 6/6/8
f 3/4/9 4/3/10 16/7/11 15/8/12
f 6/6/13 5/5/14 7/9/15 8/10/16
f 8/10/17 7/9/18 27/41/19 28/11/20
f 9/12/21 10/16/22 14/17/23 13/18/24
f 10/16/25 9/12/26 11/19/27 12/20/28
f 12/20/29 11/19/30 19/21/31 20/22/32
f 13/18/33 14/17/34 24/23/35 23/24/36
f 15/8/37 16/7/38 18/25/39 17/28/40
f 17/28/41 18/25/42 30/29/43 29/30/44
f 20/22/45 19/21/46 21/31/47 22/32/48
f 22/32/49 21/31/50 31/33/51 32/34/52
f 23/24/53 24/23/54 26/43/55 25/35/56
f 25/35/57 26/43/58 32/39/59 31/40/60
f 28/11/61 27/41/62 29/42/63 30/44/64
f 12/20/65 4/3/66 2/2/67 10/16/68
f 30/44/69 32/39/70 26/43/71 28/11/72
f 14/17/73 6/6/74 8/10/75 24/23/76
f 22/32/77 18/25/78 16/7/79 20/22/80
f 19/15/81 11/14/82 9/13/83 13/36/84 23/37/85 25/38/86 31/27/87 21/26/88
f 2/2/89 6/6/90 14/17/91 10/16/92
f 16/7/93 4/3/94 12/20/95 20/22/96
f 26/43/97 24/23/98 8/10/99 28/11/100
f 22/32/101 32/34/102 30/29/103 18/25/104
