# Exported from ProBuilder
# http://www.procore3d.com/probuilder
# 13/03/2019 6:39:32 PM

mtllib ./Detection_Cone.mtl
o Detection Cone

g DetectionCone
v 0.1400377 0.1 0.5871677
v 0.02730772 0.1 0.4911461
v 0.457 0.1 -0.650671
v 0.02730772 0.1 0.4911461
v -0.04300001 0.1 0.349329
v 0.457 0.1 -0.650671
v 0.457 0.1 -0.650671
v 0.2930481 0.1 0.6482964
v 0.1400377 0.1 0.5871677
v 0.457 0.1 -0.650671
v 0.457 0.1 0.650671
v 0.2930481 0.1 0.6482964
v 0.457 0.1 -0.650671
v 0.6209519 0.1 0.6482964
v 0.457 0.1 0.650671
v 0.457 0.1 -0.650671
v 0.7739623 0.1 0.5871677
v 0.6209519 0.1 0.6482964
v 0.7739623 0.1 0.5871677
v 0.457 0.1 -0.650671
v 0.8866923 0.1 0.4911461
v 0.457 0.1 -0.650671
v 0.957 0.1 0.349329
v 0.8866923 0.1 0.4911461
v 0.457 0.08420151 -0.650671
v 0.957 0.08420151 0.349329
v 0.457 0.1 -0.650671
v 0.957 0.1 0.349329
v 0.957 0.08420151 0.349329
v 0.8866923 0.08420151 0.4911461
v 0.957 0.1 0.349329
v 0.8866923 0.1 0.4911461
v 0.8866923 0.08420151 0.4911461
v 0.7739624 0.08420151 0.5871677
v 0.8866923 0.1 0.4911461
v 0.7739623 0.1 0.5871677
v 0.7739624 0.08420151 0.5871677
v 0.6209519 0.08420151 0.6482964
v 0.7739623 0.1 0.5871677
v 0.6209519 0.1 0.6482964
v 0.6209519 0.08420151 0.6482964
v 0.457 0.08420151 0.650671
v 0.6209519 0.1 0.6482964
v 0.457 0.1 0.650671
v 0.457 0.08420151 0.650671
v 0.2930481 0.08420151 0.6482964
v 0.457 0.1 0.650671
v 0.2930481 0.1 0.6482964
v 0.2930481 0.08420151 0.6482964
v 0.1400377 0.08420151 0.5871677
v 0.2930481 0.1 0.6482964
v 0.1400377 0.1 0.5871677
v 0.02730772 0.08420151 0.4911461
v -0.04300001 0.08420151 0.349329
v 0.02730772 0.1 0.4911461
v -0.04300001 0.1 0.349329
v 0.1400377 0.08420151 0.5871677
v 0.02730772 0.08420151 0.4911461
v 0.1400377 0.1 0.5871677
v 0.02730772 0.1 0.4911461
v -0.04300001 0.08420151 0.349329
v 0.457 0.08420151 -0.650671
v -0.04300001 0.1 0.349329
v 0.457 0.1 -0.650671
v 0.457 0.08420151 -0.650671
v 0.457 0.08420151 0.650671
v 0.6209519 0.08420151 0.6482964
v 0.7739624 0.08420151 0.5871677
v 0.457 0.08420151 -0.650671
v 0.6209519 0.08420151 0.6482964
v 0.7739624 0.08420151 0.5871677
v 0.8866923 0.08420151 0.4911461
v 0.457 0.08420151 -0.650671
v 0.8866923 0.08420151 0.4911461
v 0.957 0.08420151 0.349329
v 0.457 0.08420151 -0.650671
v 0.2930481 0.08420151 0.6482964
v 0.457 0.08420151 0.650671
v 0.457 0.08420151 -0.650671
v 0.457 0.08420151 -0.650671
v 0.1400377 0.08420151 0.5871677
v 0.2930481 0.08420151 0.6482964
v 0.1400377 0.08420151 0.5871677
v 0.457 0.08420151 -0.650671
v 0.02730772 0.08420151 0.4911461
v 0.457 0.08420151 -0.650671
v -0.04300001 0.08420151 0.349329
v 0.02730772 0.08420151 0.4911461

vn 0 1 0
vn 0 1 0
vn 0 1 0
vn 0 1 0
vn 0 1 0
vn 0 1 0
vn 0 1 0
vn 0 1 0
vn 0 1 0
vn 0 1 0
vn 0 1 0
vn 0 1 0
vn 0 1 0
vn 0 1 0
vn 0 1 0
vn 0 1 0
vn 0 1 0
vn 0 1 0
vn 0 1 0
vn 0 1 0
vn 0 1 0
vn 0 1 0
vn 0 1 0
vn 0 1 0
vn 0.8944272 0 -0.4472136
vn 0.8944272 0 -0.4472136
vn 0.8944272 0 -0.4472136
vn 0.8944272 0 -0.4472136
vn 0.8959404 0 0.4441745
vn 0.8959404 0 0.4441745
vn 0.8959404 0 0.4441745
vn 0.8959404 0 0.4441745
vn 0.6484368 0 0.7612686
vn 0.6484367 1.223213E-06 0.7612686
vn 0.6484367 1.223213E-06 0.7612686
vn 0.6484366 2.446426E-06 0.7612687
vn 0.3709958 1.399696E-06 0.9286345
vn 0.3709959 6.998479E-07 0.9286345
vn 0.3709959 6.998479E-07 0.9286345
vn 0.370996 0 0.9286345
vn 0.01448193 0 0.9998952
vn 0.01448193 0 0.9998952
vn 0.01448193 0 0.9998952
vn 0.01448193 0 0.9998952
vn -0.01448194 0 0.9998952
vn -0.01448194 0 0.9998952
vn -0.01448194 0 0.9998952
vn -0.01448194 0 0.9998952
vn -0.370996 0 0.9286345
vn -0.370996 0 0.9286345
vn -0.370996 0 0.9286345
vn -0.370996 0 0.9286345
vn -0.8959404 1.056316E-07 0.4441745
vn -0.8959404 1.584474E-07 0.4441745
vn -0.8959404 1.584474E-07 0.4441745
vn -0.8959404 2.112631E-07 0.4441745
vn -0.6484365 0 0.7612688
vn -0.6484365 3.822541E-08 0.7612687
vn -0.6484365 3.822541E-08 0.7612687
vn -0.6484365 7.645082E-08 0.7612687
vn -0.8944272 2.109064E-07 -0.4472136
vn -0.8944272 1.054532E-07 -0.4472136
vn -0.8944272 1.054532E-07 -0.4472136
vn -0.8944272 0 -0.4472136
vn 0 -1 0
vn 0 -1 0
vn 0 -1 0
vn 0 -1 0
vn 0 -1 0
vn 0 -1 0
vn 0 -1 0
vn 0 -1 0
vn 0 -1 0
vn 0 -1 0
vn 0 -1 0
vn 0 -1 0
vn 0 -1 0
vn 0 -1 0
vn 0 -1 0
vn 0 -1 0
vn 0 -1 0
vn 0 -1 0
vn 0 -1 0
vn 0 -1 0
vn 0 -1 0
vn 0 -1 0
vn 0 -1 0
vn 0 -1 0

vt -0.06696224 0.5871677
vt -0.1796923 0.4911461
vt 0.25 -0.650671
vt -0.1796923 0.4911461
vt -0.25 0.349329
vt 0.25 -0.650671
vt 0.25 -0.650671
vt 0.08604813 0.6482964
vt -0.06696224 0.5871677
vt 0.25 -0.650671
vt 0.25 0.650671
vt 0.08604813 0.6482964
vt 0.25 -0.650671
vt 0.08604813 0.6482964
vt 0.25 0.650671
vt 0.25 -0.650671
vt -0.06696224 0.5871677
vt 0.08604813 0.6482964
vt -0.06696224 0.5871677
vt 0.25 -0.650671
vt -0.1796923 0.4911461
vt 0.25 -0.650671
vt -0.25 0.349329
vt -0.1796923 0.4911461
vt 0.3776013 0.08420151
vt -0.7404328 0.08420151
vt 0.3776013 0.1
vt -0.7404328 0.1
vt 0.112097 0.08420151
vt -0.04619153 0.08420151
vt 0.112097 0.1
vt -0.04619153 0.1
vt 0.3565338 0.08420151
vt 0.2084521 0.08420151
vt 0.3565338 0.1
vt 0.2084521 0.1
vt 0.5008914 0.08420035
vt 0.3361221 0.08420035
vt 0.5008913 0.09999884
vt 0.3361221 0.09999884
vt 0.6114982 0.08420151
vt 0.4475291 0.08420151
vt 0.6114982 0.1
vt 0.4475291 0.1
vt 0.4663751 0.08420151
vt 0.302406 0.08420151
vt 0.4663751 0.1
vt 0.302406 0.1
vt 0.51265 0.08420151
vt 0.3478807 0.08420151
vt 0.51265 0.1
vt 0.3478807 0.1
vt 0.452167 0.08420149
vt 0.2938784 0.08420149
vt 0.452167 0.09999998
vt 0.2938784 0.09999998
vt 0.4873473 0.08420151
vt 0.3392656 0.08420151
vt 0.4873473 0.1
vt 0.3392656 0.1
vt 0.3316796 0.08420154
vt -0.7863545 0.08420154
vt 0.3316796 0.1
vt -0.7863545 0.1
vt -0.457 -0.650671
vt -0.457 0.650671
vt -0.6209519 0.6482964
vt -0.7739624 0.5871677
vt -0.457 -0.650671
vt -0.6209519 0.6482964
vt -0.7739624 0.5871677
vt -0.8866923 0.4911461
vt -0.457 -0.650671
vt -0.8866923 0.4911461
vt -0.957 0.349329
vt -0.457 -0.650671
vt -0.2930481 0.6482964
vt -0.457 0.650671
vt -0.457 -0.650671
vt -0.457 -0.650671
vt -0.1400377 0.5871677
vt -0.2930481 0.6482964
vt -0.1400377 0.5871677
vt -0.457 -0.650671
vt -0.02730772 0.4911461
vt -0.457 -0.650671
vt 0.04300001 0.349329
vt -0.02730772 0.4911461

g DetectionCone
usemtl pb-MergedObject-46228Mat
f 3/3/3 2/2/2 1/1/1
f 6/6/6 5/5/5 4/4/4
f 9/9/9 8/8/8 7/7/7
f 12/12/12 11/11/11 10/10/10
f 15/15/15 14/14/14 13/13/13
f 18/18/18 17/17/17 16/16/16
f 21/21/21 20/20/20 19/19/19
f 24/24/24 23/23/23 22/22/22
f 67/67/67 66/66/66 65/65/65
f 70/70/70 69/69/69 68/68/68
f 73/73/73 72/72/72 71/71/71
f 76/76/76 75/75/75 74/74/74
f 79/79/79 78/78/78 77/77/77
f 82/82/82 81/81/81 80/80/80
f 85/85/85 84/84/84 83/83/83
f 88/88/88 87/87/87 86/86/86
f 28/28/28 26/26/26 25/25/25
f 25/25/25 27/27/27 28/28/28
f 32/32/32 30/30/30 29/29/29
f 29/29/29 31/31/31 32/32/32
f 36/36/36 34/34/34 33/33/33
f 33/33/33 35/35/35 36/36/36
f 40/40/40 38/38/38 37/37/37
f 37/37/37 39/39/39 40/40/40
f 44/44/44 42/42/42 41/41/41
f 41/41/41 43/43/43 44/44/44
f 48/48/48 46/46/46 45/45/45
f 45/45/45 47/47/47 48/48/48
f 52/52/52 50/50/50 49/49/49
f 49/49/49 51/51/51 52/52/52
f 56/56/56 54/54/54 53/53/53
f 53/53/53 55/55/55 56/56/56
f 60/60/60 58/58/58 57/57/57
f 57/57/57 59/59/59 60/60/60
f 64/64/64 62/62/62 61/61/61
f 61/61/61 63/63/63 64/64/64

