# This file uses centimeters as units for non-parametric coordinates.

g default
v -1.000000 -0.150000 1.000000
v 1.000000 -0.150000 1.000000
v -1.000000 -0.150000 -1.000000
v 1.000000 -0.150000 -1.000000
v -1.000000 0.000015 1.000000
v -0.850015 0.150000 0.850015
v 0.850015 0.150000 0.850015
v 1.000000 0.000015 1.000000
v -0.850015 0.150000 -0.850015
v -1.000000 0.000015 -1.000000
v 0.850015 0.150000 -0.850015
v 1.000000 0.000015 -1.000000
vt 0.067457 0.938149
vt 0.132752 0.872854
vt 0.872854 0.872854
vt 0.938149 0.938149
vt 0.067457 0.067457
vt 0.132752 0.132753
vt 0.938149 0.067457
vt 0.872854 0.132753
vt 0.011497 0.878814
vt 0.011497 0.132753
vt 0.067457 0.132753
vt 0.067457 0.878814
vt 0.994109 0.878813
vt 0.994109 0.132753
vt 0.938149 0.132753
vt 0.938149 0.878813
vt 0.120752 0.011044
vt 0.872854 0.011044
vt 0.872854 0.067457
vt 0.120752 0.067457
vt 0.884855 0.938149
vt 0.132752 0.938149
vt 0.132752 0.994563
vt 0.884855 0.994563
vn -0.707107 0.707107 0.000000
vn -0.707107 0.707107 0.000000
vn -0.707107 0.707107 0.000000
vn -0.707107 0.707107 0.000000
vn 0.000000 0.707107 0.707107
vn 0.000000 0.707107 0.707107
vn 0.000000 0.707107 0.707107
vn 0.000000 0.707107 0.707107
vn 0.707107 0.707107 0.000000
vn 0.707107 0.707107 0.000000
vn 0.707107 0.707107 0.000000
vn 0.707107 0.707107 0.000000
vn 0.000000 0.707107 -0.707107
vn 0.000000 0.707107 -0.707107
vn 0.000000 0.707107 -0.707107
vn 0.000000 0.707107 -0.707107
vn 0.000000 0.000000 1.000000
vn 0.000000 0.000000 1.000000
vn 0.000000 0.000000 1.000000
vn 0.000000 0.000000 1.000000
vn 0.000000 1.000000 0.000000
vn 0.000000 1.000000 0.000000
vn 0.000000 1.000000 0.000000
vn 0.000000 1.000000 0.000000
vn 0.000000 0.000000 -1.000000
vn 0.000000 0.000000 -1.000000
vn 0.000000 0.000000 -1.000000
vn 0.000000 0.000000 -1.000000
vn 1.000000 0.000000 0.000000
vn 1.000000 0.000000 0.000000
vn 1.000000 0.000000 0.000000
vn 1.000000 0.000000 0.000000
vn -1.000000 0.000000 0.000000
vn -1.000000 0.000000 0.000000
vn -1.000000 0.000000 0.000000
vn -1.000000 0.000000 0.000000
s off
g platform
f 5/1/1 6/2/2 9/3/3 10/4/4
f 6/2/5 5/1/6 8/5/7 7/6/8
f 7/6/9 8/5/10 12/7/11 11/8/12
f 10/4/13 9/3/14 11/8/15 12/7/16
f 1/9/17 2/10/18 8/11/19 5/12/20
f 6/2/21 7/6/22 11/8/23 9/3/24
f 10/13/25 12/14/26 4/15/27 3/16/28
f 2/17/29 4/18/30 12/19/31 8/20/32
f 3/21/33 1/22/34 5/23/35 10/24/36
