# Exported from ProBuilder
# http://www.procore3d.com/probuilder
# 12/03/2019 11:26:36 AM

mtllib ./Shield_Powerup.mtl
o Shield Powerup

g Shield
v -0.5 -0.1004512 0.3290542
v -0.3735525 -0.1004512 -0.5293115
v -0.5 -0.0004512481 0.3290542
v -0.3735525 -0.04932884 -0.5293115
v -0.25 0.0004512481 0.4706885
v -0.5 -0.1004512 0.3290542
v -0.5 -0.0004512481 0.3290542
v -0.25 0.1004512 0.4706885
v -0.25 0.05157365 -0.5293115
v -0.3735525 -0.04932884 -0.5293115
v -0.3735525 -0.1004512 -0.5293115
v -0.25 0.0004512481 -0.5293115
v -0.3735525 -0.04932884 -0.5293115
v -0.25 0.05157365 -0.5293115
v -0.25 0.1004512 0.4706885
v -0.5 -0.0004512481 0.3290542
v -0.3735525 -0.1004512 -0.5293115
v -0.5 -0.1004512 0.3290542
v -0.25 0.0004512481 0.4706885
v -0.25 0.0004512481 -0.5293115
v -0.25 0.05157365 -0.5293115
v 0 0.05157365 -0.4236153
v 0 0.1004512 0.5293115
v -0.25 0.1004512 0.4706885
v -0.25 0.05157365 -0.5293115
v -0.25 0.0004512481 -0.5293115
v 0 0.0004512481 -0.4236153
v 0 0.05157365 -0.4236153
v -0.25 0.0004512481 -0.5293115
v -0.25 0.0004512481 0.4706885
v 0 0.0004512481 0.5293115
v 0 0.0004512481 -0.4236153
v 0 0.0004512481 0.5293115
v -0.25 0.0004512481 0.4706885
v -0.25 0.1004512 0.4706885
v 0 0.1004512 0.5293115
v 0.5 -0.1004512 0.3290542
v 0.3735525 -0.1004512 -0.5293115
v 0.5 -0.0004512481 0.3290542
v 0.3735525 -0.04932884 -0.5293115
v 0.25 0.0004512481 0.4706885
v 0.5 -0.1004512 0.3290542
v 0.5 -0.0004512481 0.3290542
v 0.25 0.1004512 0.4706885
v 0.25 0.05157365 -0.5293115
v 0.3735525 -0.04932884 -0.5293115
v 0.3735525 -0.1004512 -0.5293115
v 0.25 0.0004512481 -0.5293115
v 0.3735525 -0.04932884 -0.5293115
v 0.25 0.05157365 -0.5293115
v 0.25 0.1004512 0.4706885
v 0.5 -0.0004512481 0.3290542
v 0.3735525 -0.1004512 -0.5293115
v 0.5 -0.1004512 0.3290542
v 0.25 0.0004512481 0.4706885
v 0.25 0.0004512481 -0.5293115
v 0.25 0.05157365 -0.5293115
v 0 0.05157365 -0.4236153
v 0 0.1004512 0.5293115
v 0.25 0.1004512 0.4706885
v 0.25 0.05157365 -0.5293115
v 0.25 0.0004512481 -0.5293115
v 0 0.0004512481 -0.4236153
v 0 0.05157365 -0.4236153
v 0.25 0.0004512481 -0.5293115
v 0.25 0.0004512481 0.4706885
v 0 0.0004512481 0.5293115
v 0 0.0004512481 -0.4236153
v 0 0.0004512481 0.5293115
v 0.25 0.0004512481 0.4706885
v 0.25 0.1004512 0.4706885
v 0 0.1004512 0.5293115

vn -0.9893231 0 -0.1457391
vn -0.9893231 0 -0.1457391
vn -0.9893231 0 -0.1457391
vn -0.9893231 0 -0.1457391
vn -0.4929271 0 0.8700706
vn -0.4929271 0 0.8700706
vn -0.4929271 0 0.8700706
vn -0.4929271 0 0.8700706
vn 0 0 -1
vn 0 0 -1
vn 0 0 -1
vn 0 0 -1
vn -0.4773273 0.8575522 -0.06946927
vn -0.6320866 0.7739738 -0.03782998
vn -0.4773273 0.8575522 -0.06946927
vn -0.3225681 0.9411307 -0.1011086
vn 0.4905821 -0.8551912 0.02567829
vn 0.3486248 -0.9358543 0.05135658
vn 0.4905821 -0.8551912 0.02567829
vn 0.6325395 -0.7745282 0
vn 0.01654948 0.9985976 -0.05001442
vn 0.02165196 0.998453 -0.05121272
vn 0.01654948 0.9985976 -0.05001442
vn 0.011447 0.9987422 -0.04881611
vn 0.3894118 0 -0.9210638
vn 0.3894118 0 -0.9210638
vn 0.3894118 0 -0.9210638
vn 0.3894118 0 -0.9210638
vn 0 -1 0
vn 0 -1 0
vn 0 -1 0
vn 0 -1 0
vn -0.2282996 0 0.973591
vn -0.2282996 0 0.973591
vn -0.2282996 0 0.973591
vn -0.2282996 0 0.973591
vn 0.9893231 0 -0.1457391
vn 0.9893231 0 -0.1457391
vn 0.9893231 0 -0.1457391
vn 0.9893231 0 -0.1457391
vn 0.4929271 0 0.8700706
vn 0.4929271 0 0.8700706
vn 0.4929271 0 0.8700706
vn 0.4929271 0 0.8700706
vn 0 0 -1
vn 0 0 -1
vn 0 0 -1
vn 0 0 -1
vn 0.4773273 0.8575522 -0.06946927
vn 0.6320866 0.7739738 -0.03782998
vn 0.4773273 0.8575522 -0.06946927
vn 0.3225681 0.9411307 -0.1011086
vn -0.4905821 -0.8551912 0.02567829
vn -0.3486248 -0.9358543 0.05135658
vn -0.4905821 -0.8551912 0.02567829
vn -0.6325395 -0.7745282 0
vn -0.01654948 0.9985976 -0.05001442
vn -0.02165196 0.998453 -0.05121272
vn -0.01654948 0.9985976 -0.05001442
vn -0.011447 0.9987422 -0.04881611
vn -0.3894118 0 -0.9210638
vn -0.3894118 0 -0.9210638
vn -0.3894118 0 -0.9210638
vn -0.3894118 0 -0.9210638
vn 0 -1 0
vn 0 -1 0
vn 0 -1 0
vn 0 -1 0
vn 0.2282996 0 0.973591
vn 0.2282996 0 0.973591
vn 0.2282996 0 0.973591
vn 0.2282996 0 0.973591

vt 0.3619757 -0.1004512
vt -0.5056537 -0.1004512
vt 0.3619757 -0.0004512481
vt -0.5056537 -0.04932884
vt 0.1621004 0.06885787
vt -0.1213837 -0.03808466
vt -0.1213837 0.06070968
vt 0.1621004 0.1676522
vt -0.1885945 0.1920186
vt -0.3040384 0.08270749
vt -0.3040384 0.03375732
vt -0.1885945 0.1430684
vt 0.1304534 -0.5299411
vt -0.009360321 -0.5256261
vt -0.01823132 0.4754949
vt 0.2459299 0.3310588
vt 0.1410813 -0.5297802
vt 0.2649963 0.3287311
vt -8.985883E-05 0.4706814
vt -8.985883E-05 -0.5292975
vt -0.009360321 -0.5256261
vt -0.2552083 -0.422646
vt -0.2640793 0.5314762
vt -0.01823132 0.4754949
vt -0.1885945 0.1920186
vt -0.1885945 0.1430684
vt 0.08265798 0.1402755
vt -0.2552083 -0.422646
vt -8.985883E-05 -0.5292975
vt -8.985883E-05 0.4706814
vt -0.2450829 0.5289797
vt 0.08265798 0.1402755
vt -0.2450829 0.5289797
vt 0.1621004 0.06885787
vt 0.1621004 0.1676522
vt -0.2640793 0.5314762
vt 0.3619757 -0.1004512
vt -0.5056537 -0.1004512
vt 0.3619757 -0.0004512481
vt -0.5056537 -0.04932884
vt 0.1621004 0.06885787
vt -0.1213837 -0.03808466
vt -0.1213837 0.06070968
vt 0.1621004 0.1676522
vt -0.1885945 0.1920186
vt -0.3040384 0.08270749
vt -0.3040384 0.03375732
vt -0.1885945 0.1430684
vt 0.1304534 -0.5299411
vt -0.009360321 -0.5256261
vt -0.01823132 0.4754949
vt 0.2459299 0.3310588
vt 0.1410813 -0.5297802
vt 0.2649963 0.3287311
vt -8.985883E-05 0.4706814
vt -8.985883E-05 -0.5292975
vt -0.009360321 -0.5256261
vt -0.2552083 -0.422646
vt -0.2640793 0.5314762
vt -0.01823132 0.4754949
vt -0.1885945 0.1920186
vt -0.1885945 0.1430684
vt 0.08265798 0.1402755
vt -0.2552083 -0.422646
vt -8.985883E-05 -0.5292975
vt -8.985883E-05 0.4706814
vt -0.2450829 0.5289797
vt 0.08265798 0.1402755
vt -0.2450829 0.5289797
vt 0.1621004 0.06885787
vt 0.1621004 0.1676522
vt -0.2640793 0.5314762

g Shield
usemtl ProBuilderDefault
f 3/3/3 4/4/4 2/2/2 1/1/1
f 8/8/8 7/7/7 6/6/6 5/5/5
f 11/11/11 10/10/10 9/9/9 12/12/12
f 16/16/16 15/15/15 14/14/14 13/13/13
f 20/20/20 19/19/19 18/18/18 17/17/17
f 24/24/24 23/23/23 22/22/22 21/21/21
f 26/26/26 25/25/25 28/28/28 27/27/27
f 32/32/32 31/31/31 30/30/30 29/29/29
f 36/36/36 35/35/35 34/34/34 33/33/33
f 37/37/37 38/38/38 40/40/40 39/39/39
f 42/42/42 43/43/43 44/44/44 41/41/41
f 45/45/45 46/46/46 47/47/47 48/48/48
f 50/50/50 51/51/51 52/52/52 49/49/49
f 54/54/54 55/55/55 56/56/56 53/53/53
f 58/58/58 59/59/59 60/60/60 57/57/57
f 64/64/64 61/61/61 62/62/62 63/63/63
f 66/66/66 67/67/67 68/68/68 65/65/65
f 70/70/70 71/71/71 72/72/72 69/69/69

