# Exported from ProBuilder
# http://www.procore3d.com/probuilder
# 27/02/2019 6:32:11 PM

mtllib ./Spreadshot_Powerup.mtl
o Spreadshot Powerup

g Render
v -584.5642 739.7709 140.6231
v -584.483 739.5583 141.1017
v -584.6956 739.6897 141.3975
v -584.5642 739.7709 140.6231
v -584.6956 739.6897 141.3975
v -584.8271 739.7709 140.6231
v -584.5642 739.7709 140.6231
v -584.8271 739.7709 140.6231
v -584.6956 739.6897 139.8486
v -584.5642 739.7709 140.6231
v -584.6956 739.6897 139.8486
v -584.483 739.5583 140.1445
v -584.5642 739.7709 140.6231
v -584.483 739.5583 140.1445
v -584.483 739.5583 141.1017
v -584.8271 739.7709 140.6231
v -584.6956 739.6897 141.3975
v -584.9083 739.5583 141.1017
v -584.6956 739.6897 141.3975
v -584.483 739.5583 141.1017
v -584.6956 739.4268 141.3975
v -584.483 739.5583 141.1017
v -584.483 739.5583 140.1445
v -584.5642 739.3456 140.6231
v -584.483 739.5583 140.1445
v -584.6956 739.6897 139.8486
v -584.6956 739.4268 139.8486
v -584.6956 739.6897 139.8486
v -584.8271 739.7709 140.6231
v -584.9083 739.5583 140.1445
v -584.8271 739.3456 140.6231
v -584.9083 739.5583 141.1017
v -584.6956 739.4268 141.3975
v -584.8271 739.3456 140.6231
v -584.6956 739.4268 141.3975
v -584.5642 739.3456 140.6231
v -584.8271 739.3456 140.6231
v -584.5642 739.3456 140.6231
v -584.6956 739.4268 139.8486
v -584.8271 739.3456 140.6231
v -584.6956 739.4268 139.8486
v -584.9083 739.5583 140.1445
v -584.8271 739.3456 140.6231
v -584.9083 739.5583 140.1445
v -584.9083 739.5583 141.1017
v -584.6956 739.4268 141.3975
v -584.9083 739.5583 141.1017
v -584.6956 739.6897 141.3975
v -584.5642 739.3456 140.6231
v -584.6956 739.4268 141.3975
v -584.483 739.5583 141.1017
v -584.6956 739.4268 139.8486
v -584.5642 739.3456 140.6231
v -584.483 739.5583 140.1445
v -584.9083 739.5583 140.1445
v -584.6956 739.4268 139.8486
v -584.6956 739.6897 139.8486
v -584.9083 739.5583 141.1017
v -584.9083 739.5583 140.1445
v -584.8271 739.7709 140.6231

vn 0.1443376 0.1443376 0.5256221
vn 0.1443376 0.1443376 0.5256221
vn 0.1443376 0.1443376 0.5256221
vn 0 0.2335431 0.3248523
vn 0 0.2335431 0.3248523
vn 0 0.2335431 0.3248523
vn 0 0.2335431 -0.3248523
vn 0 0.2335431 -0.3248523
vn 0 0.2335431 -0.3248523
vn 0.1443376 0.1443376 -0.5256221
vn 0.1443376 0.1443376 -0.5256221
vn 0.1443376 0.1443376 -0.5256221
vn 0.2335431 0.08920553 0
vn 0.2335431 0.08920553 0
vn 0.2335431 0.08920553 0
vn -0.1443376 0.1443376 0.5256221
vn -0.1443376 0.1443376 0.5256221
vn -0.1443376 0.1443376 0.5256221
vn 0.08920553 0 0.8504744
vn 0.08920553 0 0.8504744
vn 0.08920553 0 0.8504744
vn 0.2335431 -0.08920553 0
vn 0.2335431 -0.08920553 0
vn 0.2335431 -0.08920553 0
vn 0.08920553 0 -0.8504744
vn 0.08920553 0 -0.8504744
vn 0.08920553 0 -0.8504744
vn -0.1443376 0.1443376 -0.5256221
vn -0.1443376 0.1443376 -0.5256221
vn -0.1443376 0.1443376 -0.5256221
vn -0.1443376 -0.1443376 0.5256221
vn -0.1443376 -0.1443376 0.5256221
vn -0.1443376 -0.1443376 0.5256221
vn 0 -0.2335431 0.3248523
vn 0 -0.2335431 0.3248523
vn 0 -0.2335431 0.3248523
vn 0 -0.2335431 -0.3248523
vn 0 -0.2335431 -0.3248523
vn 0 -0.2335431 -0.3248523
vn -0.1443376 -0.1443376 -0.5256221
vn -0.1443376 -0.1443376 -0.5256221
vn -0.1443376 -0.1443376 -0.5256221
vn -0.2335431 -0.08920553 0
vn -0.2335431 -0.08920553 0
vn -0.2335431 -0.08920553 0
vn -0.08920553 0 0.8504744
vn -0.08920553 0 0.8504744
vn -0.08920553 0 0.8504744
vn 0.1443376 -0.1443376 0.5256221
vn 0.1443376 -0.1443376 0.5256221
vn 0.1443376 -0.1443376 0.5256221
vn 0.1443376 -0.1443376 -0.5256221
vn 0.1443376 -0.1443376 -0.5256221
vn 0.1443376 -0.1443376 -0.5256221
vn -0.08920553 0 -0.8504744
vn -0.08920553 0 -0.8504744
vn -0.08920553 0 -0.8504744
vn -0.2335431 0.08920553 0
vn -0.2335431 0.08920553 0
vn -0.2335431 0.08920553 0

vt 0.5257311 0.8506508
vt 0.8506508 0
vt 0 0.5257311
vt -0.5257311 0
vt 0 0.8506508
vt 0.5257311 0
vt -0.5257311 0
vt 0.5257311 0
vt 0 -0.8506508
vt -0.5257311 0.8506508
vt 0 0.5257311
vt -0.8506508 0
vt 0 0.8506508
vt 0.5257311 0
vt -0.5257311 0
vt -0.5257311 0.8506508
vt 0 0.5257311
vt -0.8506508 0
vt 0 0.5257311
vt 0.8506508 0
vt 0 -0.5257311
vt -0.5257311 0
vt 0.5257311 0
vt 0 -0.8506508
vt -0.8506508 0
vt 0 0.5257311
vt 0 -0.5257311
vt 0 0.5257311
vt 0.5257311 0.8506508
vt 0.8506508 0
vt -0.5257311 -0.8506508
vt -0.8506508 0
vt 0 -0.5257311
vt -0.5257311 0
vt 0 0.8506508
vt 0.5257311 0
vt -0.5257311 0
vt 0.5257311 0
vt 0 -0.8506508
vt 0.5257311 -0.8506508
vt 0 -0.5257311
vt 0.8506508 0
vt 0 -0.8506508
vt -0.5257311 0
vt 0.5257311 0
vt 0 -0.5257311
vt -0.8506508 0
vt 0 0.5257311
vt 0.5257311 -0.8506508
vt 0 -0.5257311
vt 0.8506508 0
vt 0 -0.5257311
vt -0.5257311 -0.8506508
vt -0.8506508 0
vt 0.8506508 0
vt 0 -0.5257311
vt 0 0.5257311
vt 0.5257311 0
vt -0.5257311 0
vt 0 0.8506508

g Render
usemtl BulletMat
f 3/3/3 2/2/2 1/1/1
f 6/6/6 5/5/5 4/4/4
f 9/9/9 8/8/8 7/7/7
f 12/12/12 11/11/11 10/10/10
f 15/15/15 14/14/14 13/13/13
f 18/18/18 17/17/17 16/16/16
f 21/21/21 20/20/20 19/19/19
f 24/24/24 23/23/23 22/22/22
f 27/27/27 26/26/26 25/25/25
f 30/30/30 29/29/29 28/28/28
f 33/33/33 32/32/32 31/31/31
f 36/36/36 35/35/35 34/34/34
f 39/39/39 38/38/38 37/37/37
f 42/42/42 41/41/41 40/40/40
f 45/45/45 44/44/44 43/43/43
f 48/48/48 47/47/47 46/46/46
f 51/51/51 50/50/50 49/49/49
f 54/54/54 53/53/53 52/52/52
f 57/57/57 56/56/56 55/55/55
f 60/60/60 59/59/59 58/58/58

g Render (1)
v -583.6892 739.7709 141.7796
v -583.6943 739.5583 142.0311
v -583.9445 739.6897 142.0967
v -583.6892 739.7709 141.7796
v -583.9445 739.6897 142.0967
v -583.9362 739.7709 141.6897
v -583.6892 739.7709 141.7796
v -583.9362 739.7709 141.6897
v -583.681 739.6897 141.3726
v -583.6892 739.7709 141.7796
v -583.681 739.6897 141.3726
v -583.5314 739.5583 141.5836
v -583.6892 739.7709 141.7796
v -583.5314 739.5583 141.5836
v -583.6943 739.5583 142.0311
v -583.9362 739.7709 141.6897
v -583.9445 739.6897 142.0967
v -584.094 739.5583 141.8857
v -583.9445 739.6897 142.0967
v -583.6943 739.5583 142.0311
v -583.9445 739.4268 142.0967
v -583.6943 739.5583 142.0311
v -583.5314 739.5583 141.5836
v -583.6892 739.3456 141.7796
v -583.5314 739.5583 141.5836
v -583.681 739.6897 141.3726
v -583.681 739.4268 141.3726
v -583.681 739.6897 141.3726
v -583.9362 739.7709 141.6897
v -583.9311 739.5583 141.4382
v -583.9362 739.3456 141.6897
v -584.094 739.5583 141.8857
v -583.9445 739.4268 142.0967
v -583.9362 739.3456 141.6897
v -583.9445 739.4268 142.0967
v -583.6892 739.3456 141.7796
v -583.9362 739.3456 141.6897
v -583.6892 739.3456 141.7796
v -583.681 739.4268 141.3726
v -583.9362 739.3456 141.6897
v -583.681 739.4268 141.3726
v -583.9311 739.5583 141.4382
v -583.9362 739.3456 141.6897
v -583.9311 739.5583 141.4382
v -584.094 739.5583 141.8857
v -583.9445 739.4268 142.0967
v -584.094 739.5583 141.8857
v -583.9445 739.6897 142.0967
v -583.6892 739.3456 141.7796
v -583.9445 739.4268 142.0967
v -583.6943 739.5583 142.0311
v -583.681 739.4268 141.3726
v -583.6892 739.3456 141.7796
v -583.5314 739.5583 141.5836
v -583.9311 739.5583 141.4382
v -583.681 739.4268 141.3726
v -583.681 739.6897 141.3726
v -584.094 739.5583 141.8857
v -583.9311 739.5583 141.4382
v -583.9362 739.7709 141.6897

vn 0.04620087 0.1443376 0.295079
vn 0.04620087 0.1443376 0.295079
vn 0.04620087 0.1443376 0.295079
vn -0.05527207 0.2335431 0.1518588
vn -0.05527207 0.2335431 0.1518588
vn -0.05527207 0.2335431 0.1518588
vn 0.05527207 0.2335431 -0.1518588
vn 0.05527207 0.2335431 -0.1518588
vn 0.05527207 0.2335431 -0.1518588
vn 0.2250651 0.1443376 -0.1963463
vn 0.2250651 0.1443376 -0.1963463
vn 0.2250651 0.1443376 -0.1963463
vn 0.2194587 0.08920553 0.07987644
vn 0.2194587 0.08920553 0.07987644
vn 0.2194587 0.08920553 0.07987644
vn -0.2250651 0.1443376 0.1963463
vn -0.2250651 0.1443376 0.1963463
vn -0.2250651 0.1443376 0.1963463
vn -0.06087837 0 0.4280815
vn -0.06087837 0 0.4280815
vn -0.06087837 0 0.4280815
vn 0.2194587 -0.08920553 0.07987644
vn 0.2194587 -0.08920553 0.07987644
vn 0.2194587 -0.08920553 0.07987644
vn 0.2285299 0 -0.3670613
vn 0.2285299 0 -0.3670613
vn 0.2285299 0 -0.3670613
vn -0.04620087 0.1443376 -0.295079
vn -0.04620087 0.1443376 -0.295079
vn -0.04620087 0.1443376 -0.295079
vn -0.2250651 -0.1443376 0.1963463
vn -0.2250651 -0.1443376 0.1963463
vn -0.2250651 -0.1443376 0.1963463
vn -0.05527207 -0.2335431 0.1518588
vn -0.05527207 -0.2335431 0.1518588
vn -0.05527207 -0.2335431 0.1518588
vn 0.05527207 -0.2335431 -0.1518588
vn 0.05527207 -0.2335431 -0.1518588
vn 0.05527207 -0.2335431 -0.1518588
vn -0.04620087 -0.1443376 -0.295079
vn -0.04620087 -0.1443376 -0.295079
vn -0.04620087 -0.1443376 -0.295079
vn -0.2194587 -0.08920553 -0.07987644
vn -0.2194587 -0.08920553 -0.07987644
vn -0.2194587 -0.08920553 -0.07987644
vn -0.2285299 0 0.3670613
vn -0.2285299 0 0.3670613
vn -0.2285299 0 0.3670613
vn 0.04620087 -0.1443376 0.295079
vn 0.04620087 -0.1443376 0.295079
vn 0.04620087 -0.1443376 0.295079
vn 0.2250651 -0.1443376 -0.1963463
vn 0.2250651 -0.1443376 -0.1963463
vn 0.2250651 -0.1443376 -0.1963463
vn 0.06087837 0 -0.4280815
vn 0.06087837 0 -0.4280815
vn 0.06087837 0 -0.4280815
vn -0.2194587 0.08920553 -0.07987644
vn -0.2194587 0.08920553 -0.07987644
vn -0.2194587 0.08920553 -0.07987644

vt 0.5257311 0.8506508
vt 0.8506508 0
vt 0 0.5257311
vt -0.5257311 0
vt 0 0.8506508
vt 0.5257311 0
vt -0.5257311 0
vt 0.5257311 0
vt 0 -0.8506508
vt -0.5257311 0.8506508
vt 0 0.5257311
vt -0.8506508 0
vt 0 0.8506508
vt 0.5257311 0
vt -0.5257311 0
vt -0.5257311 0.8506508
vt 0 0.5257311
vt -0.8506508 0
vt 0 0.5257311
vt 0.8506508 0
vt 0 -0.5257311
vt -0.5257311 0
vt 0.5257311 0
vt 0 -0.8506508
vt -0.8506508 0
vt 0 0.5257311
vt 0 -0.5257311
vt 0 0.5257311
vt 0.5257311 0.8506508
vt 0.8506508 0
vt -0.5257311 -0.8506508
vt -0.8506508 0
vt 0 -0.5257311
vt -0.5257311 0
vt 0 0.8506508
vt 0.5257311 0
vt -0.5257311 0
vt 0.5257311 0
vt 0 -0.8506508
vt 0.5257311 -0.8506508
vt 0 -0.5257311
vt 0.8506508 0
vt 0 -0.8506508
vt -0.5257311 0
vt 0.5257311 0
vt 0 -0.5257311
vt -0.8506508 0
vt 0 0.5257311
vt 0.5257311 -0.8506508
vt 0 -0.5257311
vt 0.8506508 0
vt 0 -0.5257311
vt -0.5257311 -0.8506508
vt -0.8506508 0
vt 0.8506508 0
vt 0 -0.5257311
vt 0 0.5257311
vt 0.5257311 0
vt -0.5257311 0
vt 0 0.8506508

g Render (1)
usemtl BulletMat
f 63/63/63 62/62/62 61/61/61
f 66/66/66 65/65/65 64/64/64
f 69/69/69 68/68/68 67/67/67
f 72/72/72 71/71/71 70/70/70
f 75/75/75 74/74/74 73/73/73
f 78/78/78 77/77/77 76/76/76
f 81/81/81 80/80/80 79/79/79
f 84/84/84 83/83/83 82/82/82
f 87/87/87 86/86/86 85/85/85
f 90/90/90 89/89/89 88/88/88
f 93/93/93 92/92/92 91/91/91
f 96/96/96 95/95/95 94/94/94
f 99/99/99 98/98/98 97/97/97
f 102/102/102 101/101/101 100/100/100
f 105/105/105 104/104/104 103/103/103
f 108/108/108 107/107/107 106/106/106
f 111/111/111 110/110/110 109/109/109
f 114/114/114 113/113/113 112/112/112
f 117/117/117 116/116/116 115/115/115
f 120/120/120 119/119/119 118/118/118

g Render (2)
v -585.4392 739.7709 141.7796
v -585.2814 739.5583 141.9756
v -585.431 739.6897 142.1866
v -585.4392 739.7709 141.7796
v -585.431 739.6897 142.1866
v -585.6862 739.7709 141.8695
v -585.4392 739.7709 141.7796
v -585.6862 739.7709 141.8695
v -585.6945 739.6897 141.4625
v -585.4392 739.7709 141.7796
v -585.6945 739.6897 141.4625
v -585.4443 739.5583 141.5281
v -585.4392 739.7709 141.7796
v -585.4443 739.5583 141.5281
v -585.2814 739.5583 141.9756
v -585.6862 739.7709 141.8695
v -585.431 739.6897 142.1866
v -585.6811 739.5583 142.121
v -585.431 739.6897 142.1866
v -585.2814 739.5583 141.9756
v -585.431 739.4268 142.1866
v -585.2814 739.5583 141.9756
v -585.4443 739.5583 141.5281
v -585.4392 739.3456 141.7796
v -585.4443 739.5583 141.5281
v -585.6945 739.6897 141.4625
v -585.6945 739.4268 141.4625
v -585.6945 739.6897 141.4625
v -585.6862 739.7709 141.8695
v -585.844 739.5583 141.6735
v -585.6862 739.3456 141.8695
v -585.6811 739.5583 142.121
v -585.431 739.4268 142.1866
v -585.6862 739.3456 141.8695
v -585.431 739.4268 142.1866
v -585.4392 739.3456 141.7796
v -585.6862 739.3456 141.8695
v -585.4392 739.3456 141.7796
v -585.6945 739.4268 141.4625
v -585.6862 739.3456 141.8695
v -585.6945 739.4268 141.4625
v -585.844 739.5583 141.6735
v -585.6862 739.3456 141.8695
v -585.844 739.5583 141.6735
v -585.6811 739.5583 142.121
v -585.431 739.4268 142.1866
v -585.6811 739.5583 142.121
v -585.431 739.6897 142.1866
v -585.4392 739.3456 141.7796
v -585.431 739.4268 142.1866
v -585.2814 739.5583 141.9756
v -585.6945 739.4268 141.4625
v -585.4392 739.3456 141.7796
v -585.4443 739.5583 141.5281
v -585.844 739.5583 141.6735
v -585.6945 739.4268 141.4625
v -585.6945 739.6897 141.4625
v -585.6811 739.5583 142.121
v -585.844 739.5583 141.6735
v -585.6862 739.7709 141.8695

vn 0.2250651 0.1443376 0.1963463
vn 0.2250651 0.1443376 0.1963463
vn 0.2250651 0.1443376 0.1963463
vn 0.05527211 0.2335431 0.1518588
vn 0.05527211 0.2335431 0.1518588
vn 0.05527211 0.2335431 0.1518588
vn -0.05527211 0.2335431 -0.1518588
vn -0.05527211 0.2335431 -0.1518588
vn -0.05527211 0.2335431 -0.1518588
vn 0.04620081 0.1443376 -0.295079
vn 0.04620081 0.1443376 -0.295079
vn 0.04620081 0.1443376 -0.295079
vn 0.2194587 0.08920553 -0.07987648
vn 0.2194587 0.08920553 -0.07987648
vn 0.2194587 0.08920553 -0.07987648
vn -0.04620081 0.1443376 0.295079
vn -0.04620081 0.1443376 0.295079
vn -0.04620081 0.1443376 0.295079
vn 0.22853 0 0.3670613
vn 0.22853 0 0.3670613
vn 0.22853 0 0.3670613
vn 0.2194587 -0.08920553 -0.07987648
vn 0.2194587 -0.08920553 -0.07987648
vn 0.2194587 -0.08920553 -0.07987648
vn -0.06087846 0 -0.4280815
vn -0.06087846 0 -0.4280815
vn -0.06087846 0 -0.4280815
vn -0.2250651 0.1443376 -0.1963463
vn -0.2250651 0.1443376 -0.1963463
vn -0.2250651 0.1443376 -0.1963463
vn -0.04620081 -0.1443376 0.295079
vn -0.04620081 -0.1443376 0.295079
vn -0.04620081 -0.1443376 0.295079
vn 0.05527211 -0.2335431 0.1518588
vn 0.05527211 -0.2335431 0.1518588
vn 0.05527211 -0.2335431 0.1518588
vn -0.05527211 -0.2335431 -0.1518588
vn -0.05527211 -0.2335431 -0.1518588
vn -0.05527211 -0.2335431 -0.1518588
vn -0.2250651 -0.1443376 -0.1963463
vn -0.2250651 -0.1443376 -0.1963463
vn -0.2250651 -0.1443376 -0.1963463
vn -0.2194587 -0.08920553 0.07987648
vn -0.2194587 -0.08920553 0.07987648
vn -0.2194587 -0.08920553 0.07987648
vn 0.06087846 0 0.4280815
vn 0.06087846 0 0.4280815
vn 0.06087846 0 0.4280815
vn 0.2250651 -0.1443376 0.1963463
vn 0.2250651 -0.1443376 0.1963463
vn 0.2250651 -0.1443376 0.1963463
vn 0.04620081 -0.1443376 -0.295079
vn 0.04620081 -0.1443376 -0.295079
vn 0.04620081 -0.1443376 -0.295079
vn -0.22853 0 -0.3670613
vn -0.22853 0 -0.3670613
vn -0.22853 0 -0.3670613
vn -0.2194587 0.08920553 0.07987648
vn -0.2194587 0.08920553 0.07987648
vn -0.2194587 0.08920553 0.07987648

vt 0.5257311 0.8506508
vt 0.8506508 0
vt 0 0.5257311
vt -0.5257311 0
vt 0 0.8506508
vt 0.5257311 0
vt -0.5257311 0
vt 0.5257311 0
vt 0 -0.8506508
vt -0.5257311 0.8506508
vt 0 0.5257311
vt -0.8506508 0
vt 0 0.8506508
vt 0.5257311 0
vt -0.5257311 0
vt -0.5257311 0.8506508
vt 0 0.5257311
vt -0.8506508 0
vt 0 0.5257311
vt 0.8506508 0
vt 0 -0.5257311
vt -0.5257311 0
vt 0.5257311 0
vt 0 -0.8506508
vt -0.8506508 0
vt 0 0.5257311
vt 0 -0.5257311
vt 0 0.5257311
vt 0.5257311 0.8506508
vt 0.8506508 0
vt -0.5257311 -0.8506508
vt -0.8506508 0
vt 0 -0.5257311
vt -0.5257311 0
vt 0 0.8506508
vt 0.5257311 0
vt -0.5257311 0
vt 0.5257311 0
vt 0 -0.8506508
vt 0.5257311 -0.8506508
vt 0 -0.5257311
vt 0.8506508 0
vt 0 -0.8506508
vt -0.5257311 0
vt 0.5257311 0
vt 0 -0.5257311
vt -0.8506508 0
vt 0 0.5257311
vt 0.5257311 -0.8506508
vt 0 -0.5257311
vt 0.8506508 0
vt 0 -0.5257311
vt -0.5257311 -0.8506508
vt -0.8506508 0
vt 0.8506508 0
vt 0 -0.5257311
vt 0 0.5257311
vt 0.5257311 0
vt -0.5257311 0
vt 0 0.8506508

g Render (2)
usemtl BulletMat
f 123/123/123 122/122/122 121/121/121
f 126/126/126 125/125/125 124/124/124
f 129/129/129 128/128/128 127/127/127
f 132/132/132 131/131/131 130/130/130
f 135/135/135 134/134/134 133/133/133
f 138/138/138 137/137/137 136/136/136
f 141/141/141 140/140/140 139/139/139
f 144/144/144 143/143/143 142/142/142
f 147/147/147 146/146/146 145/145/145
f 150/150/150 149/149/149 148/148/148
f 153/153/153 152/152/152 151/151/151
f 156/156/156 155/155/155 154/154/154
f 159/159/159 158/158/158 157/157/157
f 162/162/162 161/161/161 160/160/160
f 165/165/165 164/164/164 163/163/163
f 168/168/168 167/167/167 166/166/166
f 171/171/171 170/170/170 169/169/169
f 174/174/174 173/173/173 172/172/172
f 177/177/177 176/176/176 175/175/175
f 180/180/180 179/179/179 178/178/178

