# This file uses centimeters as units for non-parametric coordinates.

g default
v -1.000000 0.000000 1.000000
v 1.000000 0.000000 1.000000
v -1.000000 0.000000 -1.000000
v 1.000000 0.000000 -1.000000
v -1.000000 3.900010 1.000000
v -0.900010 4.000000 0.900010
v 0.900010 4.000000 0.900010
v 1.000000 3.900010 1.000000
v -0.900010 4.000000 -0.900010
v -1.000000 3.900010 -1.000000
v 0.900010 4.000000 -0.900010
v 1.000000 3.900010 -1.000000
v 1.000000 3.510009 1.000000
v -1.000000 3.510009 1.000000
v -1.000000 3.510009 -1.000000
v 1.000000 3.510009 -1.000000
v 1.000000 3.159008 1.000000
v 1.000000 3.159008 -1.000000
v -1.000000 3.159008 -1.000000
v -1.000000 3.159008 1.000000
v -0.783526 3.272684 0.783526
v 0.783526 3.272684 0.783526
v 0.783526 3.396333 0.783526
v -0.783526 3.396333 0.783526
v -0.783526 3.396333 -0.783526
v 0.783526 3.396333 -0.783526
v 0.783526 3.272684 -0.783526
v -0.783526 3.272684 -0.783526
vt 0.562743 0.457739
vt 0.096211 0.738190
vt 0.432200 0.743442
vt 0.720047 0.916018
vt 0.327597 0.738190
vt 0.432200 0.458737
vt 0.716905 0.458737
vt 0.716905 0.743442
vt 0.096211 0.458737
vt 0.283290 0.457739
vt 0.279953 0.000458
vt 0.240107 0.458737
vt 0.327597 0.458737
vt 0.565886 0.000458
vt 0.999500 0.916018
vt 0.358681 0.458737
vt 0.273104 0.458737
vt 0.273104 0.738190
vt 0.150705 0.738190
vt 0.413175 0.458737
vt 0.150705 0.458737
vt 0.185614 0.458737
vt 0.720047 0.474620
vt 0.562743 0.016341
vt 0.279953 0.441855
vt 0.283290 0.016341
vt 0.565886 0.441855
vt 0.999500 0.474620
vt 0.969253 0.458737
vt 0.750294 0.458737
vt 0.257220 0.488984
vt 0.257220 0.707943
vt 0.166589 0.707943
vt 0.166589 0.488984
vt 0.532496 0.000458
vt 0.313537 0.000458
vt 0.249706 0.457739
vt 0.169730 0.488984
vt 0.596133 0.457739
vt 0.429059 0.488984
vt 0.413175 0.738190
vt 0.429059 0.707943
vt 0.845339 0.441855
vt 0.815092 0.457739
vt 0.185614 0.738190
vt 0.169730 0.707943
vt 0.000500 0.441855
vt 0.030747 0.457739
vt 0.845339 0.000458
vt 0.000500 0.000458
vt 0.240107 0.738190
vt 0.358681 0.738190
vn 0.000000 1.000000 0.000000
vn 0.000000 1.000000 0.000000
vn 0.000000 1.000000 0.000000
vn 0.000000 1.000000 0.000000
vn 0.000000 0.000000 1.000000
vn 0.000000 0.000000 1.000000
vn 0.000000 0.000000 1.000000
vn 0.000000 0.000000 1.000000
vn -1.000000 0.000000 0.000000
vn -1.000000 0.000000 0.000000
vn -1.000000 0.000000 0.000000
vn -1.000000 0.000000 0.000000
vn 0.000000 0.000000 -1.000000
vn 0.000000 0.000000 -1.000000
vn 0.000000 0.000000 -1.000000
vn 0.000000 0.000000 -1.000000
vn 1.000000 0.000000 0.000000
vn 1.000000 0.000000 0.000000
vn 1.000000 0.000000 0.000000
vn 1.000000 0.000000 0.000000
vn 1.000000 0.000000 0.000000
vn 1.000000 0.000000 0.000000
vn 1.000000 0.000000 0.000000
vn 1.000000 0.000000 0.000000
vn 0.000000 0.000000 -1.000000
vn 0.000000 0.000000 -1.000000
vn 0.000000 0.000000 -1.000000
vn 0.000000 0.000000 -1.000000
vn -1.000000 0.000000 0.000000
vn -1.000000 0.000000 0.000000
vn -1.000000 0.000000 0.000000
vn -1.000000 0.000000 0.000000
vn 0.000000 0.000000 1.000000
vn 0.000000 0.000000 1.000000
vn 0.000000 0.000000 1.000000
vn 0.000000 0.000000 1.000000
vn 0.000000 0.885353 0.464920
vn 0.000000 0.885353 0.464920
vn 0.000000 0.885353 0.464920
vn 0.000000 0.885353 0.464920
vn 0.000000 -0.885352 0.464921
vn 0.000000 -0.885352 0.464921
vn 0.000000 -0.885352 0.464921
vn 0.000000 -0.885352 0.464921
vn 0.000000 -0.885352 -0.464921
vn 0.000000 -0.885352 -0.464921
vn 0.000000 -0.885352 -0.464921
vn 0.000000 -0.885352 -0.464921
vn 0.000000 0.885353 -0.464920
vn 0.000000 0.885353 -0.464920
vn 0.000000 0.885353 -0.464920
vn 0.000000 0.885353 -0.464920
vn 0.464920 0.885353 0.000000
vn 0.464920 0.885353 0.000000
vn 0.464920 0.885353 0.000000
vn 0.464920 0.885353 0.000000
vn 0.464921 -0.885352 0.000000
vn 0.464921 -0.885352 0.000000
vn 0.464921 -0.885352 0.000000
vn 0.464921 -0.885352 0.000000
vn -0.464920 0.885353 0.000000
vn -0.464920 0.885353 0.000000
vn -0.464920 0.885353 0.000000
vn -0.464920 0.885353 0.000000
vn -0.464921 -0.885352 0.000000
vn -0.464921 -0.885352 0.000000
vn -0.464921 -0.885352 0.000000
vn -0.464921 -0.885352 0.000000
s off
g switchObject
f 6/6/1 7/7/2 11/8/3 9/3/4
f 14/18/5 13/17/6 8/13/7 5/5/8
f 15/20/9 14/41/10 5/52/11 10/16/12
f 10/2/13 12/9/14 16/21/15 15/19/16
f 13/45/17 16/22/18 12/12/19 8/51/20
f 2/50/21 4/11/22 18/25/23 17/47/24
f 19/26/25 18/24/26 4/1/27 3/10/28
f 3/14/29 1/49/30 20/43/31 19/27/32
f 1/15/33 2/4/34 17/23/35 20/28/36
f 20/28/37 17/23/38 22/30/39 21/29/40
f 13/17/41 14/18/42 24/32/43 23/31/44
f 15/19/45 16/21/46 26/34/47 25/33/48
f 18/24/49 19/26/50 28/36/51 27/35/52
f 17/47/53 18/25/54 27/37/55 22/48/56
f 16/22/57 13/45/58 23/46/59 26/38/60
f 19/27/61 20/43/62 21/44/63 28/39/64
f 14/41/65 15/20/66 25/40/67 24/42/68
g default
v -0.900010 4.000000 0.900010
v -0.900010 4.000000 -0.900010
v -1.000000 3.900010 -1.000000
v -1.000000 3.900010 1.000000
v 1.000000 3.900010 1.000000
v 0.900010 4.000000 0.900010
v 1.000000 3.900010 -1.000000
v 0.900010 4.000000 -0.900010
v -0.783526 3.272684 0.783526
v 0.783526 3.272684 0.783526
v 0.783526 3.396333 0.783526
v -0.783526 3.396333 0.783526
v -0.783526 3.396333 -0.783526
v 0.783526 3.396333 -0.783526
v 0.783526 3.272684 -0.783526
v -0.783526 3.272684 -0.783526
vt 0.000410 0.039319
vt 0.012898 0.051807
vt 0.762284 0.039319
vt 0.749795 0.051807
vt 0.250205 0.039319
vt 0.237716 0.051807
vt 0.512488 0.039319
vt 0.002204 0.007190
vt 0.251102 0.007190
vt 0.251102 0.026829
vt 0.002204 0.026829
vt 0.748898 0.007190
vt 0.500000 0.007190
vt 0.748898 0.026829
vt 0.737307 0.039319
vt 0.500000 0.051807
vt 0.749795 0.051807
vt 0.500000 0.026829
vt 0.997796 0.026829
vt 0.997796 0.007190
vt 0.500000 0.007190
vt 0.500000 0.026829
vt 0.262693 0.051807
vt 0.250205 0.039319
vt 0.500000 0.039319
vt 0.487511 0.051807
vt 0.999590 0.051807
vt 0.987102 0.039319
vn -0.707106 0.707107 0.000000
vn -0.707106 0.707107 0.000000
vn -0.707106 0.707107 0.000000
vn -0.707106 0.707107 0.000000
vn 0.000000 0.707108 0.707106
vn 0.000000 0.707108 0.707106
vn 0.000000 0.707108 0.707106
vn 0.000000 0.707108 0.707106
vn 0.707106 0.707107 0.000000
vn 0.707106 0.707107 0.000000
vn 0.707106 0.707107 0.000000
vn 0.707106 0.707107 0.000000
vn 0.000000 0.707108 -0.707106
vn 0.000000 0.707108 -0.707106
vn 0.000000 0.707108 -0.707106
vn 0.000000 0.707108 -0.707106
vn 0.000000 0.000000 1.000000
vn 0.000000 0.000000 1.000000
vn 0.000000 0.000000 1.000000
vn 0.000000 0.000000 1.000000
vn 0.000000 0.000000 -1.000000
vn 0.000000 0.000000 -1.000000
vn 0.000000 0.000000 -1.000000
vn 0.000000 0.000000 -1.000000
vn 1.000000 0.000000 0.000000
vn 1.000000 0.000000 0.000000
vn 1.000000 0.000000 0.000000
vn 1.000000 0.000000 0.000000
vn -1.000000 0.000000 0.000000
vn -1.000000 0.000000 0.000000
vn -1.000000 0.000000 0.000000
vn -1.000000 0.000000 0.000000
s off
g switchObject scroller
f 32/79/69 29/80/70 30/55/71 31/56/72
f 29/54/73 32/53/74 33/57/75 34/58/76
f 34/75/77 33/76/78 35/77/79 36/78/80
f 31/69/81 30/67/82 36/59/83 35/68/84
f 37/60/85 38/61/86 39/62/87 40/63/88
f 41/64/89 42/65/90 43/70/91 44/66/92
f 38/61/93 43/73/94 42/74/95 39/62/96
f 44/66/97 37/71/98 40/72/99 41/64/100
